<?xml version="1.0" encoding="UTF-8" ?>
<!DOCTYPE svg PUBLIC "-//W3C//DTD SVG 1.1//EN" "http://www.w3.org/Graphics/SVG/1.1/DTD/svg11.dtd">
<svg width="1200pt" height="680pt" viewBox="0 0 1200 680" version="1.1" xmlns="http://www.w3.org/2000/svg">
<g id="#ffffffff">
<path fill="#ffffff" opacity="1.00" d=" M 837.07 68.28 C 838.51 68.00 839.37 70.40 837.79 70.81 C 836.17 71.39 835.35 68.57 837.07 68.28 Z" />
<path fill="#ffffff" opacity="1.00" d=" M 49.14 239.28 C 52.05 237.73 56.11 240.76 54.79 243.99 C 54.11 246.71 50.24 247.78 48.37 245.64 C 46.43 243.94 46.75 240.43 49.14 239.28 Z" />
<path fill="#ffffff" opacity="1.00" d=" M 1134.91 269.11 C 1136.55 268.61 1137.13 269.16 1136.63 270.77 C 1134.97 271.26 1134.39 270.70 1134.91 269.11 Z" />
<path fill="#ffffff" opacity="1.00" d=" M 386.54 470.59 C 393.91 470.07 401.58 471.72 407.49 476.33 C 414.63 481.38 418.92 489.84 419.43 498.51 C 410.65 497.41 402.11 493.54 396.16 486.89 C 391.78 482.25 388.78 476.52 386.54 470.59 Z" />
<path fill="#ffffff" opacity="1.00" d=" M 190.98 493.02 C 193.28 484.32 200.01 477.36 208.14 473.78 C 210.67 481.23 211.04 489.34 209.75 497.08 C 207.91 505.80 202.01 512.86 195.64 518.77 C 190.38 511.42 188.35 501.75 190.98 493.02 Z" />
<path fill="#ffffff" opacity="1.00" d=" M 360.74 501.90 C 359.83 491.08 365.64 480.24 374.88 474.66 C 376.74 479.67 378.59 484.69 380.28 489.77 C 381.69 501.08 375.72 511.73 368.11 519.63 C 364.08 514.55 360.99 508.49 360.74 501.90 Z" />
<path fill="#ffffff" opacity="1.00" d=" M 111.32 479.31 C 114.21 477.24 118.60 480.72 117.15 484.06 C 116.20 487.43 110.90 487.54 109.68 484.34 C 108.67 482.58 109.65 480.25 111.32 479.31 Z" />
<path fill="#ffffff" opacity="1.00" d=" M 397.00 509.26 C 403.75 506.82 411.14 507.36 417.96 509.25 C 415.63 515.52 411.43 521.13 405.72 524.70 C 397.26 530.22 385.97 530.66 376.93 526.24 C 382.08 519.09 388.49 512.25 397.00 509.26 Z" />
<path fill="#ffffff" opacity="1.00" d=" M 204.23 526.37 C 205.56 522.92 209.32 520.78 211.84 518.10 C 212.99 522.58 215.07 526.72 217.58 530.59 C 212.89 530.11 208.28 528.82 204.23 526.37 Z" />
</g>
<g id="#ffc62eff">
<path fill="#ffc62e" opacity="1.00" d=" M 836.04 66.91 C 837.80 67.11 840.56 68.30 839.47 70.55 C 838.87 72.82 836.35 71.60 834.93 71.01 C 835.06 69.59 835.36 68.18 836.04 66.91 M 837.07 68.28 C 835.35 68.57 836.17 71.39 837.79 70.81 C 839.37 70.40 838.51 68.00 837.07 68.28 Z" />
<path fill="#ffc62e" opacity="1.00" d=" M 523.17 122.34 C 532.03 120.51 541.43 122.22 549.40 126.41 C 558.87 131.57 566.03 140.74 568.65 151.21 C 571.23 160.98 569.47 171.69 564.42 180.39 C 559.27 189.53 550.07 195.97 540.03 198.67 C 528.12 201.63 514.91 198.38 505.59 190.43 C 499.71 185.65 495.64 178.92 493.29 171.78 C 489.40 159.10 492.89 144.60 501.70 134.76 C 507.24 128.42 514.95 124.08 523.17 122.34 M 529.52 159.60 C 529.38 159.92 529.09 160.58 528.94 160.90 C 530.82 163.65 533.14 166.07 535.36 168.56 C 541.45 174.98 547.14 181.78 553.37 188.08 C 554.43 187.61 556.58 186.58 555.24 185.14 C 548.39 177.00 540.92 169.35 533.87 161.36 C 539.87 159.33 545.74 156.93 551.62 154.58 C 554.23 153.77 552.20 149.93 549.99 151.38 C 543.13 153.99 536.15 156.44 529.52 159.60 Z" />
<path fill="#ffc62e" opacity="1.00" d=" M 47.32 237.57 C 51.33 234.45 57.91 237.94 57.50 243.02 C 57.63 247.89 51.46 251.04 47.53 248.24 C 43.78 246.00 43.72 239.99 47.32 237.57 M 49.14 239.28 C 46.75 240.43 46.43 243.94 48.37 245.64 C 50.24 247.78 54.11 246.71 54.79 243.99 C 56.11 240.76 52.05 237.73 49.14 239.28 Z" />
<path fill="#ffc62e" opacity="1.00" d=" M 757.52 293.03 C 761.91 292.10 766.40 291.70 770.89 291.96 C 775.87 292.91 780.82 294.31 785.15 297.05 C 786.69 298.06 788.17 299.16 789.60 300.34 C 794.71 304.77 798.52 310.66 800.50 317.12 C 802.23 323.10 802.60 329.35 803.21 335.52 C 804.59 349.12 806.06 362.71 807.34 376.32 C 807.54 378.43 807.74 380.54 807.98 382.66 C 807.37 382.77 806.16 382.99 805.55 383.10 C 804.79 383.23 803.27 383.49 802.51 383.63 C 800.30 376.85 801.01 369.56 799.38 362.67 C 798.21 358.43 794.57 355.25 790.55 353.78 C 784.64 351.91 778.39 353.87 772.50 354.87 L 772.31 354.89 C 765.56 355.60 757.42 354.90 752.46 360.45 C 748.52 364.64 748.51 370.76 749.36 376.10 C 750.14 380.57 749.48 385.36 751.54 389.54 C 749.73 389.71 747.93 389.88 746.14 390.12 C 743.43 390.41 740.73 390.61 738.03 390.89 C 736.03 371.61 734.12 352.33 732.13 333.06 C 731.00 322.24 734.58 311.01 742.03 303.04 C 746.22 298.40 751.88 295.52 757.52 293.03 M 760.12 300.03 C 757.29 300.63 754.26 302.84 754.50 306.04 C 754.48 309.70 754.58 313.41 755.56 316.96 C 756.37 320.06 759.85 321.95 762.94 321.46 C 766.59 320.90 770.79 321.29 773.90 318.94 C 777.15 315.84 775.38 311.00 775.24 307.11 C 775.15 304.10 774.03 300.68 770.95 299.54 C 767.36 299.02 763.68 299.52 760.12 300.03 Z" />
<path fill="#ffc62e" opacity="1.00" d=" M 761.19 304.28 C 763.67 303.66 766.29 303.33 768.86 303.62 C 772.34 305.71 771.49 310.50 771.60 313.94 C 770.51 317.62 765.91 316.56 762.98 316.83 C 761.06 317.27 759.30 315.85 759.20 313.93 C 758.85 310.70 757.26 305.94 761.19 304.28 Z" />
<path fill="#ffc62e" opacity="1.00" d=" M 405.22 365.11 C 408.27 350.94 418.93 340.34 428.86 330.50 C 429.48 332.98 429.45 335.79 431.18 337.84 C 443.57 353.61 455.74 369.54 468.13 385.30 C 469.14 386.70 470.19 388.09 471.26 389.47 C 474.45 390.34 478.56 391.32 479.57 394.99 C 480.23 397.53 477.97 399.31 475.99 400.30 C 474.34 400.48 472.69 400.58 471.05 400.70 C 459.69 409.46 448.31 418.19 437.10 427.14 C 429.28 420.54 422.56 412.76 416.43 404.59 C 412.29 398.72 408.58 392.41 406.38 385.55 C 404.87 378.89 403.30 371.86 405.22 365.11 Z" />
<path fill="#ffc62e" opacity="1.00" d=" M 349.87 384.89 C 351.58 379.87 356.28 376.92 358.86 372.44 C 360.08 374.36 361.28 376.49 363.31 377.68 C 365.65 378.50 368.19 378.03 370.62 378.05 C 370.45 383.79 363.06 386.91 358.80 383.06 C 353.64 388.49 353.81 397.31 357.78 403.36 C 359.59 402.63 361.41 401.96 363.24 401.28 C 363.89 402.81 364.50 404.37 365.03 405.96 C 363.78 406.43 362.54 406.89 361.30 407.37 C 361.75 408.65 362.15 409.95 362.61 411.24 C 359.01 412.52 355.41 413.78 351.80 415.01 C 351.37 413.66 350.94 412.32 350.52 410.98 C 349.36 411.27 348.21 411.57 347.06 411.87 C 346.50 410.34 345.92 408.81 345.37 407.30 C 347.17 406.47 349.73 406.50 351.00 404.95 C 348.97 398.52 347.17 391.41 349.87 384.89 Z" />
<path fill="#ffc62e" opacity="1.00" d=" M 738.90 414.20 C 740.41 411.76 742.05 409.40 743.76 407.10 C 753.61 415.51 763.58 423.78 773.38 432.26 C 771.34 433.94 769.48 435.82 767.67 437.73 C 757.50 430.65 748.71 421.75 738.90 414.20 Z" />
<path fill="#ffc62e" opacity="1.00" d=" M 360.68 438.76 C 364.14 437.27 367.57 435.64 371.19 434.57 L 372.22 434.71 C 371.88 435.70 371.54 436.68 371.21 437.68 C 373.42 443.19 375.25 448.85 377.35 454.41 C 382.22 467.68 386.94 481.00 391.79 494.28 C 392.45 496.36 393.56 498.93 391.97 500.89 C 390.31 503.44 385.85 503.49 384.47 500.64 C 382.70 497.17 381.63 493.41 380.28 489.77 C 378.59 484.69 376.74 479.67 374.88 474.66 C 372.82 469.04 370.78 463.42 368.79 457.78 C 366.80 452.06 364.59 446.42 362.76 440.65 C 362.30 440.73 361.38 440.89 360.92 440.97 C 360.86 440.42 360.74 439.31 360.68 438.76 Z" />
<path fill="#ffc62e" opacity="1.00" d=" M 716.51 446.31 C 719.04 442.83 721.58 439.33 723.81 435.65 C 724.34 435.98 725.38 436.65 725.91 436.99 C 727.23 437.98 728.49 439.07 729.74 440.17 C 731.27 441.53 732.83 442.88 734.40 444.21 C 735.61 445.25 736.83 446.28 738.06 447.31 C 739.57 448.58 741.08 449.85 742.59 451.14 C 743.80 452.19 745.02 453.24 746.23 454.31 C 747.01 455.00 747.80 455.71 748.59 456.42 C 745.24 459.18 742.20 462.29 739.14 465.37 C 731.55 459.06 724.08 452.62 716.51 446.31 Z" />
<path fill="#ffc62e" opacity="1.00" d=" M 266.86 441.07 C 269.55 440.93 272.23 440.64 274.88 440.13 C 277.47 448.89 279.90 457.70 282.58 466.44 C 279.98 467.09 277.38 467.74 274.78 468.40 C 272.12 459.29 269.49 450.18 266.86 441.07 Z" />
<path fill="#ffc62e" opacity="1.00" d=" M 111.37 476.57 C 115.83 475.03 120.82 479.37 119.69 484.00 C 118.99 488.92 111.99 490.98 108.76 487.21 C 105.27 484.14 107.03 477.82 111.37 476.57 M 111.32 479.31 C 109.65 480.25 108.67 482.58 109.68 484.34 C 110.90 487.54 116.20 487.43 117.15 484.06 C 118.60 480.72 114.21 477.24 111.32 479.31 Z" />
<path fill="#ffc62e" opacity="1.00" d=" M 103.29 550.60 C 100.61 549.53 102.10 544.98 105.06 545.81 C 138.16 545.81 171.27 545.60 204.36 545.92 C 214.09 548.96 224.70 548.98 234.40 545.80 C 281.27 545.78 328.15 545.75 375.02 545.77 C 376.67 545.79 378.33 545.91 380.00 546.01 C 381.40 547.80 380.89 551.41 378.02 550.89 C 288.65 550.96 199.29 550.89 109.92 550.93 C 107.72 550.85 105.43 551.19 103.29 550.60 Z" />
<path fill="#ffc62e" opacity="1.00" d=" M 429.18 546.14 C 430.41 545.81 431.68 545.68 432.98 545.75 C 535.64 545.80 638.29 545.74 740.94 545.78 C 742.80 545.49 745.12 546.88 744.39 549.04 C 744.09 551.09 741.56 550.84 740.05 550.94 C 637.03 550.86 533.99 551.01 430.97 550.86 C 428.25 551.29 426.74 547.59 429.18 546.14 Z" />
<path fill="#ffc62e" opacity="1.00" d=" M 920.77 548.09 C 921.16 545.58 924.10 545.79 926.01 545.75 C 972.40 545.92 1018.80 545.51 1065.19 545.96 C 1068.37 546.20 1071.58 546.20 1074.78 545.94 C 1095.85 545.53 1116.94 545.91 1138.02 545.74 C 1140.01 545.71 1142.74 545.56 1143.37 548.02 C 1143.64 550.42 1140.87 551.08 1139.04 550.91 C 1067.68 550.92 996.31 550.92 924.94 550.91 C 923.21 551.12 920.48 550.20 920.77 548.09 Z" />
<path fill="#ffc62e" opacity="1.00" d=" M 312.40 576.49 C 313.69 575.48 315.48 575.87 317.00 575.74 C 365.67 575.86 414.35 575.63 463.02 575.86 C 465.60 575.51 466.42 579.18 464.49 580.51 C 462.07 581.21 459.51 580.85 457.04 580.93 C 409.68 580.89 362.32 580.95 314.97 580.90 C 312.49 581.42 310.40 578.31 312.40 576.49 Z" />
<path fill="#ffc62e" opacity="1.00" d=" M 541.82 578.03 C 542.06 575.46 545.08 575.83 546.94 575.75 C 562.29 575.87 577.65 575.60 592.99 575.88 C 595.48 576.31 594.95 579.06 595.11 580.91 C 578.34 580.90 561.57 580.98 544.81 580.88 C 543.30 581.02 541.29 579.72 541.82 578.03 Z" />
<path fill="#ffc62e" opacity="1.00" d=" M 668.98 580.81 C 666.31 580.78 666.32 577.58 666.61 575.67 C 764.40 575.92 862.21 575.67 960.00 575.79 C 962.66 575.23 964.43 578.62 962.41 580.47 C 959.67 581.27 956.76 580.82 953.95 580.92 C 864.31 580.91 774.66 580.92 685.01 580.92 C 679.67 580.82 674.32 581.10 668.98 580.81 Z" />
<path fill="#ffc62e" opacity="1.00" d=" M 461.05 613.83 C 462.96 613.25 464.97 613.28 466.94 613.26 C 486.97 613.31 507.00 613.25 527.02 613.29 C 529.76 613.40 533.20 613.24 534.66 616.09 C 532.96 617.98 530.42 618.44 527.99 618.41 C 507.34 618.42 486.68 618.38 466.03 618.43 C 463.63 618.33 460.88 618.52 458.95 616.84 C 457.25 615.42 459.86 614.03 461.05 613.83 Z" />
<path fill="#ffc62e" opacity="1.00" d=" M 574.46 613.52 C 584.23 613.01 594.11 613.32 603.92 613.36 C 607.02 613.20 607.14 618.35 604.01 618.30 C 595.01 618.57 585.99 618.31 576.98 618.43 C 575.57 618.30 573.55 618.69 572.99 616.97 C 572.10 615.58 573.09 614.01 574.46 613.52 Z" />
<path fill="#ffc62e" opacity="1.00" d=" M 624.35 613.56 C 638.86 612.94 653.50 613.39 668.06 613.34 C 671.13 612.78 672.12 617.59 669.10 618.31 C 654.74 618.52 640.36 618.40 626.00 618.37 C 623.08 618.99 621.70 614.73 624.35 613.56 Z" />
</g>
<g id="#ffeab9ff">
<path fill="#ffeab9" opacity="1.00" d=" M 337.29 111.32 C 338.83 110.67 340.61 113.88 339.02 114.69 C 337.68 114.45 336.66 112.55 337.29 111.32 Z" />
</g>
<g id="#775b95ff">
<path fill="#775b95" opacity="1.00" d=" M 551.14 119.34 C 572.06 114.82 593.62 113.14 614.96 114.90 C 616.96 115.06 618.98 115.10 621.00 115.10 C 615.31 116.42 609.73 118.59 604.99 122.04 C 604.01 122.44 604.30 123.53 604.37 124.31 C 615.32 141.08 626.69 157.59 637.69 174.34 C 641.15 179.77 646.34 183.72 650.82 188.25 C 656.43 193.84 662.35 199.13 667.70 204.98 C 661.23 201.86 654.89 198.41 648.07 196.09 C 621.91 186.05 592.72 184.40 565.47 190.73 C 574.60 180.75 578.55 166.34 576.23 153.06 C 573.91 138.65 564.08 125.89 551.14 119.34 Z" />
<path fill="#775b95" opacity="1.00" d=" M 223.35 129.22 C 230.43 122.50 240.30 118.72 250.07 119.24 C 259.99 119.62 269.68 124.32 276.10 131.91 C 284.38 141.30 286.99 155.17 283.01 167.01 C 280.70 174.03 275.93 179.83 271.83 185.87 C 231.56 243.37 191.32 300.90 150.98 358.36 C 139.87 374.43 128.60 390.39 117.39 406.40 C 112.35 413.51 107.73 421.41 100.11 426.10 C 95.70 429.25 90.28 430.21 85.37 432.29 C 78.29 432.96 70.77 432.01 64.41 428.61 C 50.93 421.78 42.38 406.14 44.39 391.09 C 45.11 383.41 48.96 376.51 53.46 370.42 C 105.90 295.52 158.35 220.62 210.78 145.71 C 214.83 140.12 218.41 134.10 223.35 129.22 Z" />
<path fill="#775b95" opacity="1.00" d=" M 1049.06 127.09 C 1057.99 120.20 1070.24 117.87 1081.06 121.07 C 1091.18 123.88 1099.88 131.36 1104.17 140.95 C 1109.86 152.83 1107.98 167.49 1100.24 178.02 C 1057.83 238.67 1015.35 299.27 972.92 359.91 C 960.02 378.34 947.11 396.78 934.18 415.20 C 930.16 421.12 924.74 426.24 918.11 429.10 C 912.92 431.51 907.18 432.26 901.55 432.86 C 885.74 432.52 871.70 420.22 867.95 405.07 C 866.08 398.17 866.36 390.66 868.81 383.94 C 871.05 377.11 875.80 371.58 879.75 365.70 C 930.93 292.59 982.11 219.50 1033.29 146.40 C 1038.20 139.71 1042.34 132.18 1049.06 127.09 Z" />
<path fill="#775b95" opacity="1.00" d=" M 420.12 208.82 C 437.92 183.30 460.70 161.07 487.41 144.97 C 482.07 159.88 484.79 177.63 495.20 189.73 C 502.80 199.30 514.32 205.37 526.44 206.64 C 512.21 214.46 499.95 225.51 489.39 237.77 C 483.99 229.18 478.58 220.59 473.15 212.01 C 470.06 207.32 467.58 202.13 463.54 198.14 C 462.32 197.82 461.08 198.32 459.89 198.55 C 446.67 202.13 433.37 205.38 420.12 208.82 Z" />
<path fill="#775b95" opacity="1.00" d=" M 529.52 159.60 C 536.15 156.44 543.13 153.99 549.99 151.38 C 552.20 149.93 554.23 153.77 551.62 154.58 C 545.74 156.93 539.87 159.33 533.87 161.36 C 540.92 169.35 548.39 177.00 555.24 185.14 C 556.58 186.58 554.43 187.61 553.37 188.08 C 547.14 181.78 541.45 174.98 535.36 168.56 C 533.14 166.07 530.82 163.65 528.94 160.90 C 529.09 160.58 529.38 159.92 529.52 159.60 Z" />
<path fill="#775b95" opacity="1.00" d=" M 760.96 189.53 C 763.17 191.09 764.52 193.53 766.26 195.57 C 792.39 228.39 808.52 269.06 811.81 310.90 C 813.67 332.77 811.96 354.87 807.34 376.32 C 806.06 362.71 804.59 349.12 803.21 335.52 C 802.60 329.35 802.23 323.10 800.50 317.12 C 798.52 310.66 794.71 304.77 789.60 300.34 C 794.10 293.03 796.35 284.53 796.68 275.99 C 797.06 262.14 793.59 248.44 788.40 235.68 C 781.70 218.98 771.83 203.79 760.96 189.53 Z" />
<path fill="#775b95" opacity="1.00" d=" M 718.98 254.58 C 722.79 257.91 726.37 261.49 729.96 265.06 C 733.03 268.14 736.93 270.15 740.54 272.53 C 750.64 279.02 760.87 285.32 770.89 291.96 C 766.40 291.70 761.91 292.10 757.52 293.03 C 750.18 293.19 742.94 295.80 737.08 300.20 C 733.50 284.15 727.57 268.62 718.98 254.58 Z" />
<path fill="#775b95" opacity="1.00" d=" M 454.95 280.31 C 459.38 277.63 463.72 274.82 468.12 272.08 C 463.54 283.35 459.71 295.02 458.15 307.12 C 453.91 333.44 457.75 360.80 468.13 385.30 C 455.74 369.54 443.57 353.61 431.18 337.84 C 429.45 335.79 429.48 332.98 428.86 330.50 C 427.77 328.55 425.74 326.41 423.27 327.22 C 420.24 328.46 419.23 331.83 418.58 334.74 C 407.75 343.24 396.86 351.67 385.97 360.09 C 382.64 337.60 383.16 314.67 386.60 292.22 C 391.01 299.20 395.29 306.27 399.78 313.19 C 400.47 314.90 402.06 313.42 403.05 312.94 C 420.34 302.04 437.58 291.08 454.95 280.31 Z" />
<path fill="#775b95" opacity="1.00" d=" M 229.41 310.42 C 237.99 305.59 248.59 304.21 257.98 307.45 C 272.16 311.61 282.75 325.20 283.59 339.92 C 283.80 346.40 283.62 352.90 283.68 359.39 C 283.74 380.63 283.59 401.88 283.73 423.13 C 271.22 423.43 258.65 421.90 246.56 418.70 C 243.60 418.06 240.43 416.25 237.42 417.46 C 234.03 419.93 232.63 425.75 236.24 428.67 C 244.32 436.54 255.85 440.06 266.86 441.07 C 269.49 450.18 272.12 459.29 274.78 468.40 C 275.46 470.58 276.19 472.76 276.93 474.94 C 271.78 476.70 266.69 478.62 261.53 480.35 C 256.20 469.56 246.74 460.78 235.35 456.76 C 227.49 453.88 218.88 453.26 210.66 454.69 C 210.60 447.26 210.65 439.83 210.63 432.39 C 210.64 408.06 210.64 383.72 210.64 359.39 C 210.66 353.26 210.54 347.13 210.70 341.01 C 211.15 328.51 218.39 316.42 229.41 310.42 Z" />
<path fill="#775b95" opacity="1.00" d=" M 1059.93 307.65 C 1076.47 302.39 1095.71 311.53 1102.79 327.23 C 1107.87 337.38 1105.93 348.97 1106.31 359.89 C 1106.31 384.21 1106.32 408.54 1106.32 432.87 C 1106.30 458.24 1106.30 483.62 1106.31 509.00 C 1106.41 519.71 1101.70 530.49 1093.42 537.37 C 1088.22 542.00 1081.55 544.64 1074.78 545.94 C 1071.58 546.20 1068.37 546.20 1065.19 545.96 C 1048.13 543.84 1033.93 528.60 1033.40 511.37 C 1033.21 485.20 1033.38 459.03 1033.32 432.87 C 1033.32 408.54 1033.31 384.21 1033.32 359.89 C 1033.76 350.28 1032.00 340.31 1035.33 331.05 C 1039.03 319.84 1048.48 310.71 1059.93 307.65 Z" />
<path fill="#775b95" opacity="1.00" d=" M 389.83 379.54 C 401.42 394.21 412.72 409.09 424.30 423.77 C 427.02 426.85 425.51 432.61 430.07 434.30 C 434.30 435.39 436.72 430.67 437.10 427.14 C 448.31 418.19 459.69 409.46 471.05 400.70 C 472.69 400.58 474.34 400.48 475.99 400.30 C 491.75 427.64 517.21 449.16 546.57 460.62 C 583.56 475.25 626.74 473.18 662.14 455.03 C 687.61 442.18 709.02 421.39 722.60 396.28 C 730.14 393.30 738.30 392.16 746.14 390.12 C 747.93 389.88 749.73 389.71 751.54 389.54 C 752.97 389.39 754.42 389.25 755.87 389.11 C 771.42 387.32 786.98 385.58 802.51 383.63 C 803.27 383.49 804.79 383.23 805.55 383.10 C 797.48 414.05 782.33 443.17 761.49 467.45 C 745.31 486.16 726.26 502.52 704.71 514.74 C 667.83 536.03 624.47 545.75 582.03 542.46 C 539.63 539.46 498.31 523.29 465.07 496.80 C 444.33 479.87 426.04 459.66 412.69 436.36 C 402.44 418.64 394.52 399.49 389.83 379.54 M 748.74 403.45 C 746.31 402.89 744.64 405.07 743.22 406.64 L 743.76 407.10 C 742.05 409.40 740.41 411.76 738.90 414.20 L 738.42 413.84 C 733.92 421.35 728.17 428.07 723.81 435.65 C 721.58 439.33 719.04 442.83 716.51 446.31 C 715.84 447.19 715.17 448.05 714.52 448.94 C 721.75 455.46 729.37 461.57 736.75 467.93 C 737.54 467.07 738.33 466.22 739.14 465.37 C 742.20 462.29 745.24 459.18 748.59 456.42 C 755.31 450.58 761.47 444.11 767.67 437.73 C 769.48 435.82 771.34 433.94 773.38 432.26 C 775.38 431.04 776.89 428.81 776.09 426.39 C 776.65 424.54 776.60 422.38 774.84 421.22 C 767.74 415.27 760.87 409.04 753.66 403.24 C 752.18 401.81 750.30 402.85 748.74 403.45 Z" />
<path fill="#775b95" opacity="1.00" d=" M 274.88 440.13 C 277.92 439.42 280.87 438.35 283.70 437.02 C 283.64 447.89 283.73 458.76 283.65 469.63 C 283.29 468.56 282.93 467.49 282.58 466.44 C 279.90 457.70 277.47 448.89 274.88 440.13 Z" />
<path fill="#775b95" opacity="1.00" d=" M 218.46 471.64 C 229.09 471.56 239.33 477.28 244.76 486.41 C 239.57 488.35 234.35 490.17 229.14 492.02 C 223.95 486.24 220.34 479.17 218.46 471.64 Z" />
<path fill="#775b95" opacity="1.00" d=" M 211.84 518.10 C 217.47 513.47 224.52 510.33 231.89 510.23 C 236.75 510.03 241.47 511.43 246.04 512.96 C 241.38 524.04 229.47 531.04 217.58 530.59 C 215.07 526.72 212.99 522.58 211.84 518.10 Z" />
<path fill="#775b95" opacity="1.00" d=" M 265.23 511.49 C 271.31 511.92 277.37 512.70 283.47 512.96 C 282.27 523.32 276.63 533.16 267.98 539.07 C 259.45 544.99 248.10 547.54 238.09 544.35 C 251.65 538.42 261.98 525.93 265.23 511.49 Z" />
</g>
<g id="#eb7545ff">
<path fill="#eb7545" opacity="1.00" d=" M 621.00 115.10 C 636.16 111.99 651.89 114.76 666.38 119.62 C 686.90 126.54 705.59 138.03 722.55 151.36 C 727.92 155.97 733.74 160.17 738.33 165.61 L 738.68 166.08 C 729.14 165.40 719.83 163.03 710.41 161.56 C 703.58 160.54 696.85 159.01 690.01 158.05 C 684.19 157.25 678.50 155.60 672.61 155.36 C 654.27 146.59 635.75 138.21 617.34 129.58 C 613.02 127.81 609.09 124.91 604.37 124.31 C 604.30 123.53 604.01 122.44 604.99 122.04 C 609.73 118.59 615.31 116.42 621.00 115.10 Z" />
</g>
<g id="#ff986aff">
<path fill="#ff986a" opacity="1.00" d=" M 504.20 123.29 C 517.49 113.28 536.31 112.11 551.14 119.34 C 564.08 125.89 573.91 138.65 576.23 153.06 C 578.55 166.34 574.60 180.75 565.47 190.73 C 555.97 201.96 541.04 207.82 526.44 206.64 C 514.32 205.37 502.80 199.30 495.20 189.73 C 484.79 177.63 482.07 159.88 487.41 144.97 C 490.77 136.32 496.60 128.63 504.20 123.29 M 523.17 122.34 C 514.95 124.08 507.24 128.42 501.70 134.76 C 492.89 144.60 489.40 159.10 493.29 171.78 C 495.64 178.92 499.71 185.65 505.59 190.43 C 514.91 198.38 528.12 201.63 540.03 198.67 C 550.07 195.97 559.27 189.53 564.42 180.39 C 569.47 171.69 571.23 160.98 568.65 151.21 C 566.03 140.74 558.87 131.57 549.40 126.41 C 541.43 122.22 532.03 120.51 523.17 122.34 Z" />
<path fill="#ff986a" opacity="1.00" d=" M 740.39 168.72 C 740.67 168.68 741.23 168.60 741.51 168.56 C 748.62 174.87 754.89 182.19 760.96 189.53 C 771.83 203.79 781.70 218.98 788.40 235.68 C 793.59 248.44 797.06 262.14 796.68 275.99 C 796.35 284.53 794.10 293.03 789.60 300.34 C 788.17 299.16 786.69 298.06 785.15 297.05 C 776.41 277.26 767.08 257.73 757.98 238.10 C 755.62 228.43 753.21 218.77 750.78 209.12 C 747.26 195.67 744.43 182.02 740.39 168.72 Z" />
<path fill="#ff986a" opacity="1.00" d=" M 459.89 198.55 C 461.08 198.32 462.32 197.82 463.54 198.14 C 467.58 202.13 470.06 207.32 473.15 212.01 C 478.58 220.59 483.99 229.18 489.39 237.77 C 492.52 242.74 495.64 247.72 498.77 252.69 C 488.62 259.27 478.33 265.62 468.12 272.08 C 463.72 274.82 459.38 277.63 454.95 280.31 C 444.55 264.75 434.98 248.63 424.80 232.92 C 438.24 224.04 452.27 216.04 465.49 206.86 C 455.96 208.86 446.73 212.03 437.32 214.49 C 430.70 216.48 423.95 218.01 417.42 220.25 C 415.44 217.14 413.67 213.75 410.59 211.56 L 410.16 211.22 C 413.42 210.20 416.82 209.71 420.12 208.82 C 433.37 205.38 446.67 202.13 459.89 198.55 Z" />
<path fill="#ff986a" opacity="1.00" d=" M 381.72 246.31 C 394.25 242.92 406.63 239.00 419.16 235.61 C 414.50 240.65 407.98 243.50 402.18 247.02 C 400.89 246.91 399.79 247.30 398.89 248.17 C 387.75 250.75 376.96 254.67 365.84 257.28 C 370.67 253.01 375.97 249.26 381.72 246.31 Z" />
<path fill="#ff986a" opacity="1.00" d=" M 772.50 354.87 C 778.55 355.42 784.50 353.80 790.55 353.78 C 794.57 355.25 798.21 358.43 799.38 362.67 C 801.01 369.56 800.30 376.85 802.51 383.63 C 786.98 385.58 771.42 387.32 755.87 389.11 C 755.32 382.73 754.42 376.37 754.05 369.98 C 753.61 364.26 757.42 358.34 763.01 356.75 C 766.07 355.97 769.22 355.62 772.31 354.89 L 772.50 354.87 Z" />
<path fill="#ff986a" opacity="1.00" d=" M 748.74 403.45 C 750.30 402.85 752.18 401.81 753.66 403.24 C 760.87 409.04 767.74 415.27 774.84 421.22 C 776.60 422.38 776.65 424.54 776.09 426.39 C 766.92 418.80 757.98 410.95 748.74 403.45 Z" />
<path fill="#ff986a" opacity="1.00" d=" M 738.42 413.84 L 738.90 414.20 C 748.71 421.75 757.50 430.65 767.67 437.73 C 761.47 444.11 755.31 450.58 748.59 456.42 C 747.80 455.71 747.01 455.00 746.23 454.31 C 750.87 449.22 755.34 443.96 759.59 438.55 C 761.18 436.68 759.20 435.02 757.81 433.90 C 752.00 438.93 747.51 445.28 742.59 451.14 C 741.08 449.85 739.57 448.58 738.06 447.31 C 742.41 442.28 746.84 437.30 751.02 432.12 C 752.23 430.89 752.38 428.22 750.46 427.63 C 748.83 426.66 747.61 428.56 746.56 429.51 C 742.48 434.39 738.21 439.12 734.40 444.21 C 732.83 442.88 731.27 441.53 729.74 440.17 C 734.28 434.88 739.04 429.74 743.17 424.12 C 745.36 421.91 740.87 418.63 739.31 421.21 C 734.75 426.39 730.33 431.69 725.91 436.99 C 725.38 436.65 724.34 435.98 723.81 435.65 C 728.17 428.07 733.92 421.35 738.42 413.84 Z" />
<path fill="#ff986a" opacity="1.00" d=" M 237.42 417.46 C 240.43 416.25 243.60 418.06 246.56 418.70 C 258.65 421.90 271.22 423.43 283.73 423.13 C 287.15 422.99 290.98 424.14 292.78 427.28 C 293.87 428.95 292.97 430.87 292.18 432.46 C 289.44 434.13 286.55 435.56 283.70 437.02 C 280.87 438.35 277.92 439.42 274.88 440.13 C 272.23 440.64 269.55 440.93 266.86 441.07 C 255.85 440.06 244.32 436.54 236.24 428.67 C 232.63 425.75 234.03 419.93 237.42 417.46 Z" />
</g>
<g id="#ffe195ff">
<path fill="#ffe195" opacity="1.00" d=" M 339.31 116.00 C 340.67 115.76 341.19 116.34 340.87 117.74 C 339.50 117.99 338.98 117.41 339.31 116.00 Z" />
</g>
<g id="#cf5c2bff">
<path fill="#cf5c2b" opacity="1.00" d=" M 604.37 124.31 C 609.09 124.91 613.02 127.81 617.34 129.58 C 635.75 138.21 654.27 146.59 672.61 155.36 C 685.50 168.13 698.61 180.68 711.67 193.26 C 711.58 193.57 711.41 194.18 711.32 194.49 C 702.62 203.50 693.88 212.46 685.20 221.48 C 679.20 216.15 673.89 210.09 667.70 204.98 C 662.35 199.13 656.43 193.84 650.82 188.25 C 646.34 183.72 641.15 179.77 637.69 174.34 C 626.69 157.59 615.32 141.08 604.37 124.31 Z" />
<path fill="#cf5c2b" opacity="1.00" d=" M 713.56 196.73 C 713.87 196.64 714.49 196.48 714.80 196.40 C 729.19 210.30 743.50 224.29 757.98 238.10 C 767.08 257.73 776.41 277.26 785.15 297.05 C 780.82 294.31 775.87 292.91 770.89 291.96 C 760.87 285.32 750.64 279.02 740.54 272.53 C 736.93 270.15 733.03 268.14 729.96 265.06 C 726.37 261.49 722.79 257.91 718.98 254.58 C 708.71 244.05 697.90 234.06 687.40 223.76 C 696.19 214.82 704.90 205.80 713.56 196.73 Z" />
<path fill="#cf5c2b" opacity="1.00" d=" M 437.32 214.49 C 446.73 212.03 455.96 208.86 465.49 206.86 C 452.27 216.04 438.24 224.04 424.80 232.92 C 422.99 233.96 421.09 234.84 419.16 235.61 C 406.63 239.00 394.25 242.92 381.72 246.31 C 383.35 244.75 385.00 243.19 386.88 241.93 C 397.12 234.79 407.22 227.45 417.42 220.25 C 423.95 218.01 430.70 216.48 437.32 214.49 Z" />
<path fill="#cf5c2b" opacity="1.00" d=" M 737.08 300.20 C 742.94 295.80 750.18 293.19 757.52 293.03 C 751.88 295.52 746.22 298.40 742.03 303.04 C 734.58 311.01 731.00 322.24 732.13 333.06 C 734.12 352.33 736.03 371.61 738.03 390.89 C 734.72 391.23 731.41 391.58 728.11 391.89 C 726.78 386.74 726.93 381.39 726.10 376.18 C 724.43 365.30 724.38 354.22 722.26 343.42 C 722.52 337.68 721.01 331.94 722.11 326.22 C 723.35 315.98 728.98 306.52 737.08 300.20 Z" />
<path fill="#cf5c2b" opacity="1.00" d=" M 752.46 360.45 C 757.42 354.90 765.56 355.60 772.31 354.89 C 769.22 355.62 766.07 355.97 763.01 356.75 C 757.42 358.34 753.61 364.26 754.05 369.98 C 754.42 376.37 755.32 382.73 755.87 389.11 C 754.42 389.25 752.97 389.39 751.54 389.54 C 749.48 385.36 750.14 380.57 749.36 376.10 C 748.51 370.76 748.52 364.64 752.46 360.45 Z" />
<path fill="#cf5c2b" opacity="1.00" d=" M 743.22 406.64 C 744.64 405.07 746.31 402.89 748.74 403.45 C 757.98 410.95 766.92 418.80 776.09 426.39 C 776.89 428.81 775.38 431.04 773.38 432.26 C 763.58 423.78 753.61 415.51 743.76 407.10 L 743.22 406.64 Z" />
<path fill="#cf5c2b" opacity="1.00" d=" M 714.52 448.94 C 715.17 448.05 715.84 447.19 716.51 446.31 C 724.08 452.62 731.55 459.06 739.14 465.37 C 738.33 466.22 737.54 467.07 736.75 467.93 C 729.37 461.57 721.75 455.46 714.52 448.94 Z" />
<path fill="#cf5c2b" opacity="1.00" d=" M 377.35 454.41 C 388.06 451.49 399.80 452.34 409.88 457.06 C 423.12 463.13 433.18 475.74 436.09 490.02 C 439.00 503.06 435.89 517.26 427.92 527.97 C 416.06 544.45 392.96 551.42 373.96 544.20 C 357.86 538.50 345.53 523.39 343.35 506.41 C 340.34 486.97 351.11 466.38 368.79 457.78 C 370.78 463.42 372.82 469.04 374.88 474.66 C 365.64 480.24 359.83 491.08 360.74 501.90 C 360.99 508.49 364.08 514.55 368.11 519.63 C 375.72 511.73 381.69 501.08 380.28 489.77 C 381.63 493.41 382.70 497.17 384.47 500.64 C 385.85 503.49 390.31 503.44 391.97 500.89 C 393.56 498.93 392.45 496.36 391.79 494.28 C 386.94 481.00 382.22 467.68 377.35 454.41 M 386.54 470.59 C 388.78 476.52 391.78 482.25 396.16 486.89 C 402.11 493.54 410.65 497.41 419.43 498.51 C 418.92 489.84 414.63 481.38 407.49 476.33 C 401.58 471.72 393.91 470.07 386.54 470.59 M 397.00 509.26 C 388.49 512.25 382.08 519.09 376.93 526.24 C 385.97 530.66 397.26 530.22 405.72 524.70 C 411.43 521.13 415.63 515.52 417.96 509.25 C 411.14 507.36 403.75 506.82 397.00 509.26 Z" />
<path fill="#cf5c2b" opacity="1.00" d=" M 210.66 454.69 C 218.88 453.26 227.49 453.88 235.35 456.76 C 246.74 460.78 256.20 469.56 261.53 480.35 C 255.95 482.41 250.36 484.42 244.76 486.41 C 239.33 477.28 229.09 471.56 218.46 471.64 C 220.34 479.17 223.95 486.24 229.14 492.02 C 224.54 493.79 219.63 494.88 215.33 497.36 C 212.15 499.21 212.15 504.78 215.54 506.39 C 218.23 507.29 221.11 507.38 223.92 507.68 C 237.69 508.97 251.46 510.22 265.23 511.49 C 261.98 525.93 251.65 538.42 238.09 544.35 C 236.88 544.88 235.65 545.35 234.40 545.80 C 224.70 548.98 214.09 548.96 204.36 545.92 C 191.62 541.60 180.82 531.77 175.70 519.29 C 170.97 508.26 170.94 495.42 175.19 484.24 C 180.90 469.17 194.72 457.47 210.66 454.69 M 190.98 493.02 C 188.35 501.75 190.38 511.42 195.64 518.77 C 202.01 512.86 207.91 505.80 209.75 497.08 C 211.04 489.34 210.67 481.23 208.14 473.78 C 200.01 477.36 193.28 484.32 190.98 493.02 M 211.84 518.10 C 209.32 520.78 205.56 522.92 204.23 526.37 C 208.28 528.82 212.89 530.11 217.58 530.59 C 229.47 531.04 241.38 524.04 246.04 512.96 C 241.47 511.43 236.75 510.03 231.89 510.23 C 224.52 510.33 217.47 513.47 211.84 518.10 Z" />
</g>
<g id="#fa8052ff">
<path fill="#fa8052" opacity="1.00" d=" M 672.61 155.36 C 678.50 155.60 684.19 157.25 690.01 158.05 C 696.85 159.01 703.58 160.54 710.41 161.56 C 719.83 163.03 729.14 165.40 738.68 166.08 C 739.27 166.93 739.84 167.81 740.39 168.72 C 744.43 182.02 747.26 195.67 750.78 209.12 C 753.21 218.77 755.62 228.43 757.98 238.10 C 743.50 224.29 729.19 210.30 714.80 196.40 C 714.49 196.48 713.87 196.64 713.56 196.73 C 712.80 195.98 712.06 195.23 711.32 194.49 C 711.41 194.18 711.58 193.57 711.67 193.26 C 698.61 180.68 685.50 168.13 672.61 155.36 Z" />
<path fill="#fa8052" opacity="1.00" d=" M 358.42 250.07 C 375.78 237.19 393.12 224.29 410.59 211.56 C 413.67 213.75 415.44 217.14 417.42 220.25 C 407.22 227.45 397.12 234.79 386.88 241.93 C 385.00 243.19 383.35 244.75 381.72 246.31 C 375.97 249.26 370.67 253.01 365.84 257.28 C 365.46 257.44 364.72 257.77 364.34 257.94 C 362.06 255.56 360.39 252.69 358.42 250.07 Z" />
<path fill="#fa8052" opacity="1.00" d=" M 419.16 235.61 C 421.09 234.84 422.99 233.96 424.80 232.92 C 434.98 248.63 444.55 264.75 454.95 280.31 C 437.58 291.08 420.34 302.04 403.05 312.94 C 402.06 313.42 400.47 314.90 399.78 313.19 C 395.29 306.27 391.01 299.20 386.60 292.22 C 381.33 283.85 376.06 275.49 370.77 267.14 C 380.20 261.05 389.90 255.37 399.15 249.02 C 400.57 249.27 401.65 248.23 402.18 247.02 C 407.98 243.50 414.50 240.65 419.16 235.61 Z" />
<path fill="#fa8052" opacity="1.00" d=" M 351.80 415.01 C 355.41 413.78 359.01 412.52 362.61 411.24 C 365.56 418.97 368.76 426.65 371.19 434.57 C 367.57 435.64 364.14 437.27 360.68 438.76 L 360.29 438.94 C 359.94 438.22 359.25 436.78 358.90 436.06 C 356.66 438.50 356.08 441.88 354.73 444.82 C 349.87 456.64 345.52 468.67 340.36 480.37 C 329.35 500.52 306.50 513.88 283.47 512.96 C 277.37 512.70 271.31 511.92 265.23 511.49 C 251.46 510.22 237.69 508.97 223.92 507.68 C 221.11 507.38 218.23 507.29 215.54 506.39 C 212.15 504.78 212.15 499.21 215.33 497.36 C 219.63 494.88 224.54 493.79 229.14 492.02 C 234.35 490.17 239.57 488.35 244.76 486.41 C 250.36 484.42 255.95 482.41 261.53 480.35 C 266.69 478.62 271.78 476.70 276.93 474.94 C 276.19 472.76 275.46 470.58 274.78 468.40 C 277.38 467.74 279.98 467.09 282.58 466.44 C 282.93 467.49 283.29 468.56 283.65 469.63 C 285.65 474.80 286.07 481.58 291.53 484.49 C 299.17 488.43 308.38 487.38 316.08 484.13 C 323.33 481.05 329.90 475.73 333.59 468.69 C 340.08 452.13 346.25 435.44 352.70 418.86 C 352.39 417.57 352.09 416.29 351.80 415.01 Z" />
</g>
<g id="#ff8e5bff">
<path fill="#ff8e5b" opacity="1.00" d=" M 741.55 159.47 C 745.22 157.69 749.51 162.10 747.66 165.72 C 746.69 168.22 743.74 168.27 741.51 168.56 C 741.23 168.60 740.67 168.68 740.39 168.72 C 739.84 167.81 739.27 166.93 738.68 166.08 L 738.33 165.61 C 738.76 163.33 739.07 160.46 741.55 159.47 Z" />
<path fill="#ff8e5b" opacity="1.00" d=" M 685.20 221.48 C 693.88 212.46 702.62 203.50 711.32 194.49 C 712.06 195.23 712.80 195.98 713.56 196.73 C 704.90 205.80 696.19 214.82 687.40 223.76 C 676.23 235.12 665.29 246.71 654.07 258.01 C 652.66 258.98 653.08 260.64 653.19 262.09 C 654.04 266.77 649.53 269.84 646.57 272.67 C 643.36 275.76 637.07 274.47 636.05 269.91 C 634.41 264.90 639.37 261.44 642.43 258.37 C 644.58 255.91 647.94 256.94 650.76 256.81 C 652.86 255.26 654.51 253.19 656.33 251.33 C 665.87 241.30 675.61 231.46 685.20 221.48 Z" />
</g>
<g id="#ba7a83ff">
<path fill="#ba7a83" opacity="1.00" d=" M 398.89 248.17 C 399.79 247.30 400.89 246.91 402.18 247.02 C 401.65 248.23 400.57 249.27 399.15 249.02 L 398.89 248.17 Z" />
</g>
<g id="#ffc44eff">
<path fill="#ffc44e" opacity="1.00" d=" M 1133.66 268.71 C 1134.43 266.77 1136.53 267.82 1137.89 268.28 C 1138.09 269.67 1138.42 272.06 1136.49 272.30 C 1134.50 272.88 1132.31 270.47 1133.66 268.71 M 1134.91 269.11 C 1134.39 270.70 1134.97 271.26 1136.63 270.77 C 1137.13 269.16 1136.55 268.61 1134.91 269.11 Z" />
<path fill="#ffc44e" opacity="1.00" d=" M 358.86 372.44 C 358.19 368.28 360.76 363.79 364.97 362.85 C 369.76 361.56 374.99 365.71 374.70 370.69 C 374.80 373.76 372.50 375.94 370.62 378.05 C 368.19 378.03 365.65 378.50 363.31 377.68 C 361.28 376.49 360.08 374.36 358.86 372.44 Z" />
</g>
<g id="#856aa9ff">
<path fill="#856aa9" opacity="1.00" d=" M 760.12 300.03 C 763.68 299.52 767.36 299.02 770.95 299.54 C 774.03 300.68 775.15 304.10 775.24 307.11 C 775.38 311.00 777.15 315.84 773.90 318.94 C 770.79 321.29 766.59 320.90 762.94 321.46 C 759.85 321.95 756.37 320.06 755.56 316.96 C 754.58 313.41 754.48 309.70 754.50 306.04 C 754.26 302.84 757.29 300.63 760.12 300.03 M 761.19 304.28 C 757.26 305.94 758.85 310.70 759.20 313.93 C 759.30 315.85 761.06 317.27 762.98 316.83 C 765.91 316.56 770.51 317.62 771.60 313.94 C 771.49 310.50 772.34 305.71 768.86 303.62 C 766.29 303.33 763.67 303.66 761.19 304.28 Z" />
</g>
<g id="#ffb828ff">
<path fill="#ffb828" opacity="1.00" d=" M 423.27 327.22 C 425.74 326.41 427.77 328.55 428.86 330.50 C 418.93 340.34 408.27 350.94 405.22 365.11 C 403.30 371.86 404.87 378.89 406.38 385.55 C 408.58 392.41 412.29 398.72 416.43 404.59 C 422.56 412.76 429.28 420.54 437.10 427.14 C 436.72 430.67 434.30 435.39 430.07 434.30 C 425.51 432.61 427.02 426.85 424.30 423.77 C 412.72 409.09 401.42 394.21 389.83 379.54 C 387.68 376.94 386.00 373.91 383.55 371.57 C 381.56 370.53 379.09 370.06 377.77 368.07 C 376.33 366.15 376.58 362.98 378.75 361.71 C 380.85 360.16 383.56 360.58 385.97 360.09 C 396.86 351.67 407.75 343.24 418.58 334.74 C 419.23 331.83 420.24 328.46 423.27 327.22 Z" />
</g>
<g id="#b24426ff">
<path fill="#b24426" opacity="1.00" d=" M 722.26 343.42 C 724.38 354.22 724.43 365.30 726.10 376.18 C 720.40 377.47 714.90 379.56 709.12 380.42 C 713.52 368.09 717.71 355.69 722.26 343.42 Z" />
</g>
<g id="#ea7d37ff">
<path fill="#ea7d37" opacity="1.00" d=" M 772.50 354.87 C 778.39 353.87 784.64 351.91 790.55 353.78 C 784.50 353.80 778.55 355.42 772.50 354.87 Z" />
</g>
<g id="#523e67ff">
<path fill="#523e67" opacity="1.00" d=" M 117.39 406.40 C 128.60 390.39 139.87 374.43 150.98 358.36 L 150.32 359.46 C 170.43 359.29 190.53 359.43 210.64 359.39 C 210.64 383.72 210.64 408.06 210.63 432.39 C 168.87 432.38 127.12 432.58 85.37 432.29 C 90.28 430.21 95.70 429.25 100.11 426.10 C 107.73 421.41 112.35 413.51 117.39 406.40 Z" />
<path fill="#523e67" opacity="1.00" d=" M 283.68 359.39 C 290.43 359.38 297.39 359.08 303.89 361.25 C 315.17 364.82 324.09 374.69 326.70 386.21 C 328.47 395.62 328.06 405.88 323.32 414.40 C 317.40 425.69 304.80 432.55 292.18 432.46 C 292.97 430.87 293.87 428.95 292.78 427.28 C 290.98 424.14 287.15 422.99 283.73 423.13 C 283.59 401.88 283.74 380.63 283.68 359.39 Z" />
<path fill="#523e67" opacity="1.00" d=" M 972.92 359.91 C 993.05 359.85 1013.18 359.89 1033.32 359.89 C 1033.31 384.21 1033.32 408.54 1033.32 432.87 C 989.39 432.86 945.47 432.88 901.55 432.86 C 907.18 432.26 912.92 431.51 918.11 429.10 C 924.74 426.24 930.16 421.12 934.18 415.20 C 947.11 396.78 960.02 378.34 972.92 359.91 Z" />
<path fill="#523e67" opacity="1.00" d=" M 1106.31 359.89 C 1114.47 359.83 1123.11 359.47 1130.58 363.35 C 1141.61 368.45 1149.36 379.85 1150.08 391.97 C 1150.92 400.59 1149.59 409.70 1144.69 417.00 C 1138.97 426.05 1128.73 432.12 1118.02 432.68 C 1114.12 432.99 1110.21 432.85 1106.32 432.87 C 1106.32 408.54 1106.31 384.21 1106.31 359.89 Z" />
</g>
<g id="#c25027ff">
<path fill="#c25027" opacity="1.00" d=" M 709.12 380.42 C 714.90 379.56 720.40 377.47 726.10 376.18 C 726.93 381.39 726.78 386.74 728.11 391.89 C 731.41 391.58 734.72 391.23 738.03 390.89 C 740.73 390.61 743.43 390.41 746.14 390.12 C 738.30 392.16 730.14 393.30 722.60 396.28 L 722.48 395.87 C 719.42 396.48 716.20 397.75 713.09 396.77 C 709.93 395.53 707.36 392.54 707.07 389.10 C 706.69 386.04 708.12 383.21 709.12 380.42 Z" />
</g>
<g id="#eb7445ff">
<path fill="#eb7445" opacity="1.00" d=" M 739.31 421.21 C 740.87 418.63 745.36 421.91 743.17 424.12 C 739.04 429.74 734.28 434.88 729.74 440.17 C 728.49 439.07 727.23 437.98 725.91 436.99 C 730.33 431.69 734.75 426.39 739.31 421.21 Z" />
<path fill="#eb7445" opacity="1.00" d=" M 746.56 429.51 C 747.61 428.56 748.83 426.66 750.46 427.63 C 752.38 428.22 752.23 430.89 751.02 432.12 C 746.84 437.30 742.41 442.28 738.06 447.31 C 736.83 446.28 735.61 445.25 734.40 444.21 C 738.21 439.12 742.48 434.39 746.56 429.51 Z" />
<path fill="#eb7445" opacity="1.00" d=" M 742.59 451.14 C 747.51 445.28 752.00 438.93 757.81 433.90 C 759.20 435.02 761.18 436.68 759.59 438.55 C 755.34 443.96 750.87 449.22 746.23 454.31 C 745.02 453.24 743.80 452.19 742.59 451.14 Z" />
</g>
<g id="#ffe7afff">
<path fill="#ffe7af" opacity="1.00" d=" M 904.85 485.64 C 907.84 486.91 908.17 490.65 909.21 493.35 C 906.18 492.10 905.92 488.31 904.85 485.64 Z" />
</g>
</svg>
